# xmcd
#
# Track frame offsets:
#	150
#	21317
#	47511
#
# Disc length: 901 seconds
#
# Revision: 0
# Processed by: cddbd v1.5.2PL0 Copyright (c) Steve Scherf et al.
# Submitted via: audiograbber 1.83.01
#
DISCID=1c038303
DTITLE=Wolf Larsen - The Ballad Of Arkadi [CDS)
DYEAR=1998
DGENRE=Ambient
TTITLE0=The Ballad Of Arkadi
TTITLE1=Chinese Cemetary (Chinahouse Remix)
TTITLE2=The Seals Of Harmaja (Riisuttu Remix)
EXTD=TR.
EXTT0=
EXTT1=
EXTT2=
PLAYORDER=
